<svg id="Layer_1" data-name="Layer 1" xmlns="http://www.w3.org/2000/svg" viewBox="0 0 620 880">
  <defs>
    <style>
      .cls-1 {
        fill: #fff;
        stroke: #231f20;
        stroke-miterlimit: 10;
        stroke-width: 3px;
      }
      .cls-2 {
        font-size: 60px;
        fill: #231f20;
        font-family: "Lucida Sans Unicode";
      }
      .cls-3 {
        fill: #414042;
      }
    </style>
  </defs><rect class="cls-1" width="620" height="880" rx="20"/>
<path class="cls-3" d="M35.64,107.7v9.7c0,4,9,6.13,17.49,6.13s17.49-2.14,17.49-6.13v-9.7c-3.2,2.81-10.51,4.29-17.49,4.29S38.84,110.51,35.64,107.7Z"/><path class="cls-3" d="M55.73,105.13a1.31,1.31,0,0,0,.1,1.58,1.47,1.47,0,0,0,2.32-1.79,1.31,1.31,0,0,0-1.5-.5L45.81,89.94a.89.89,0,0,0-1.1-.27l-.11.09a.31.31,0,0,0-.11.09.88.88,0,0,0,0,1.13Z"/><path class="cls-3" d="M51.78,101.52l-2.17,2.9a1.31,1.31,0,0,0-1.5.5,1.47,1.47,0,0,0,2.32,1.79,1.31,1.31,0,0,0,.1-1.58l2.06-2.58Z"/><path
    class="cls-3"
    d="M53.13,110.63c8.48,0,17.49-2.15,17.49-6.13,0-3.39-6.55-5.45-13.74-6l-1.28,1.61c8.31.39,13.32,2.69,13.32,4.38,0,1.86-6,4.44-15.79,4.44s-15.79-2.58-15.79-4.44c0-1.69,5-4,13.32-4.38l-1.28-1.61c-7.19.54-13.74,2.6-13.74,6C35.64,108.48,44.65,110.63,53.13,110.63Z"/><path class="cls-3" d="M61.79,91a.88.88,0,0,0,0-1.13.31.31,0,0,0-.11-.09l-.12-.09a.88.88,0,0,0-1.09.27L53.66,99l.84,1.13Z"/>
  <text class="cls-2" transform="matrix(-1, 0, 0, 1, 70.62, 76.32)">M</text><path class="cls-3" d="M69.76,107.7v9.7c0,4-9,6.13-17.49,6.13s-17.48-2.14-17.48-6.13v-9.7C38,110.51,45.29,112,52.27,112S66.56,110.51,69.76,107.7Z"/><path class="cls-3" d="M49.68,105.13a1.34,1.34,0,0,1-.1,1.58,1.47,1.47,0,0,1-2.32-1.79,1.3,1.3,0,0,1,1.49-.5L59.59,89.94a.89.89,0,0,1,1.1-.27l.12.09.11.09a.9.9,0,0,1,0,1.13Z"/><path class="cls-3" d="M53.63,101.52l2.17,2.9a1.3,1.3,0,0,1,1.49.5A1.47,1.47,0,0,1,55,106.71a1.32,1.32,0,0,1-.1-1.58l-2-2.58Z"/><path
    class="cls-3"
    d="M52.27,110.63c-8.47,0-17.48-2.15-17.48-6.13,0-3.39,6.55-5.45,13.74-6l1.28,1.61c-8.32.39-13.33,2.69-13.33,4.38,0,1.86,6,4.44,15.79,4.44s15.8-2.58,15.8-4.44c0-1.69-5-4-13.33-4.38L56,98.51c7.19.54,13.74,2.6,13.74,6C69.76,108.48,60.75,110.63,52.27,110.63Z"/><path class="cls-3" d="M43.61,91a.9.9,0,0,1,0-1.13l.11-.09.12-.09a.89.89,0,0,1,1.1.27L51.75,99l-.85,1.13Z"/>
  <text class="cls-2" transform="translate(586.49 799.11) rotate(180)">M</text><path class="cls-3" d="M585.64,767.73V758c0-4-9-6.13-17.49-6.13s-17.49,2.15-17.49,6.13v9.7c3.2-2.8,10.51-4.28,17.49-4.28S582.44,764.93,585.64,767.73Z"/><path class="cls-3" d="M565.55,770.3a1.31,1.31,0,0,0-.1-1.57,1.47,1.47,0,1,0-2.32,1.79,1.3,1.3,0,0,0,1.5.49l10.84,14.48a.86.86,0,0,0,1.09.27.5.5,0,0,0,.12-.08l.11-.09a.88.88,0,0,0,0-1.13Z"/><path class="cls-3" d="M569.5,773.91l2.17-2.9a1.3,1.3,0,0,0,1.5-.49,1.47,1.47,0,1,0-2.32-1.79,1.29,1.29,0,0,0-.1,1.57l-2.06,2.59Z"/><path
    class="cls-3"
    d="M568.15,764.8c-8.48,0-17.49,2.15-17.49,6.13,0,3.4,6.55,5.46,13.74,6l1.28-1.61c-8.32-.39-13.33-2.69-13.33-4.38,0-1.85,6-4.43,15.8-4.43s15.79,2.58,15.79,4.43c0,1.69-5,4-13.33,4.38l1.29,1.61c7.18-.53,13.74-2.59,13.74-6C585.64,767,576.63,764.8,568.15,764.8Z"/><path class="cls-3" d="M559.49,784.46a.88.88,0,0,0,0,1.13l.1.09.12.08a.88.88,0,0,0,1.1-.27l6.79-9.07-.85-1.12Z"/><path
    class="cls-3"
    d="M153.94,674.16,185.6,484.34s-5.56-1.73-5.56-3.26,8.05-9.19,8.05-9.19S194,448,199.38,443.55s16.85-14.36,23.56-16.85a83.18,83.18,0,0,1,14.55-3.64l15.89-15.89s.19-7.09-1.72-8.62c0,0-5.75.38-8.43-1.15s-7.66-7.47-12.44-14.55-12.64-13.41-14.94-18.77-10.15-24.7-10-32.93,3.07-32,3.07-32-11.3-.19-12.45-13.6,3.06-32.17,17.43-45.19,8.23-13,8.23-13,22-15.32,30.45-16.09,16.85-3.83,22.78-4.4,20.88-4,34.47,6.13,28,11.3,37,26.81,7.85,39.25,5.94,44.8-5.56,6.32-5.56,6.32,3.45,3.07,3.83,10.15-1.53,17.62-.76,20.11-2.88,8-2.88,8-.57,6.13-5.17,8.62-10.72,1.91-10.72,1.91l-5.17,38.88,18.19,21.25-.19,4.6a15.59,15.59,0,0,0,7.85,7.27c5.94,2.68,50.55,29.49,56.11,34.28S439.7,470,439.7,470,457.32,557.49,455,570.7s.19,46.15,1.34,53.81,0,49.65,0,49.65Z"/></svg>
